<svg width="80" height="80" viewBox="0 0 80 80" fill="none" xmlns="http://www.w3.org/2000/svg">
<g clip-path="url(#clip0_2_159)">
<path d="M35.4021 0.984024C26.7101 2.06882 18.5445 6.06083 12.3181 12.3208C2.32932 22.3264 -1.54828 36.8664 2.21412 50.2568C5.77972 62.9072 15.4893 73.0776 27.9261 77.1688C31.0645 78.204 33.3973 78.6472 38.1125 79.124C39.8045 79.288 40.4781 79.288 42.7949 79.0416C50.2541 78.2696 56.0533 76.2488 61.5901 72.5192C67.5541 68.5264 71.9733 63.4664 75.1613 57.0096C79.9589 47.316 80.5013 36.44 76.6893 26.2208C75.8845 24.036 74.0773 20.52 72.7133 18.4824C66.2069 8.67282 56.0045 2.36402 44.4381 0.984024C41.9901 0.688019 37.7837 0.688019 35.4021 0.984024ZM38.6877 6.40562V9.28082H40.0021H41.3165V6.40562V3.53042H42.3189C44.6357 3.53042 48.7101 4.33522 51.9957 5.43602C56.4317 6.93122 60.1773 9.11603 64.3997 12.6488L64.8925 13.0592L63.3317 14.62L61.7869 16.1808L62.7565 17.1664L63.7421 18.152L65.3029 16.608L66.8637 15.064L67.5373 15.82C72.4333 21.4392 75.5717 28.7664 76.2941 36.2912C76.3925 37.2768 76.4749 38.1808 76.4749 38.312C76.4749 38.476 75.7685 38.5256 72.9429 38.5256H69.4109V39.9224V41.3184H72.9429C75.8509 41.3184 76.4749 41.3512 76.4749 41.5488C76.4749 42.4528 76.0645 45.5416 75.7189 47.3152C74.8973 51.5048 72.9589 56.3184 70.7245 59.7192C69.5741 61.4768 67.8653 63.7112 67.2085 64.3192L66.7653 64.7136L64.8925 62.8408L63.0029 60.968L62.0997 61.856C61.6069 62.3488 61.1957 62.8256 61.1957 62.924C61.1957 63.0064 62.0173 63.9096 63.0197 64.912L64.8597 66.752L64.3013 67.2616C61.6069 69.7584 56.8261 72.6176 52.9813 74.0632C49.7773 75.2624 44.7661 76.3144 42.2693 76.3144H41.3165V73.5216V70.7288H40.0021H38.6877V73.5216V76.3144H37.7509C36.3381 76.3144 32.7069 75.7392 30.5877 75.1808C25.0341 73.7352 19.8917 70.9752 15.4725 67.048L14.3549 66.0624L16.2941 64.124L18.2325 62.184L17.2797 61.248L16.3429 60.2952L14.4861 62.152C13.4677 63.1544 12.5965 63.992 12.5309 63.992C12.4813 63.992 12.0213 63.4824 11.5125 62.8584C8.04612 58.5536 5.36852 52.836 4.28372 47.3648C3.95572 45.7056 3.52852 42.436 3.52852 41.532C3.52852 41.368 4.23492 41.3184 7.06052 41.3184H10.5925V39.9216V38.5248H7.06052H3.52852V38.1472C3.52852 37.1776 4.07092 33.3336 4.44852 31.6576C5.77972 25.7264 8.88452 19.7624 12.9589 15.2776L13.8461 14.292L15.4229 15.8528L17.0005 17.4136L17.9373 16.4608L18.8901 15.524L17.3453 13.98L15.8173 12.436L17.0989 11.4008C19.0213 9.87283 21.5517 8.27922 23.8021 7.16162C27.8933 5.14082 33.7093 3.61282 37.5045 3.54723L38.6877 3.53042V6.40562Z" fill="#fff" stroke="#fff"/>
<path d="M38.6884 23.8046V34.4014L37.686 34.9278C36.5524 35.5358 35.4516 36.6694 34.8932 37.8198C34.5972 38.4438 34.5156 38.8878 34.5156 39.923C34.5156 41.1062 34.5652 41.3358 35.058 42.2726C36.4876 44.9182 39.2804 46.0678 41.9092 45.0822L42.846 44.7374L50.5348 52.4262L58.2404 60.1318L59.226 59.1462L60.2116 58.1606L52.4892 50.4366L44.7508 42.6982L45.1284 41.8934C46.2292 39.4622 44.9804 36.3566 42.3028 34.927L41.3172 34.4014V23.8046V13.2238H40.0028H38.6884V23.8046ZM41.646 37.523C41.8756 37.687 42.2372 38.0654 42.4348 38.3774C42.7636 38.8542 42.8124 39.1006 42.7636 40.0366C42.6652 41.7942 41.7284 42.7142 40.0036 42.7142C38.3116 42.7142 37.342 41.8102 37.2436 40.1022C37.1452 38.607 37.8188 37.5062 39.0508 37.1942C39.822 37.0142 41.1692 37.1782 41.646 37.523Z" fill="#fff" stroke="#fff"/>
</g>
<defs>
<clipPath id="clip0_2_159">
<rect width="80" height="80" fill="white"/>
</clipPath>
</defs>
</svg>
