<svg width="80" height="72" viewBox="0 0 80 72" fill="none" xmlns="http://www.w3.org/2000/svg">
<path d="M79.0408 35.7925C78.9608 35.0165 78.4008 34.3685 77.6408 34.1925C76.5048 33.9285 75.3448 33.7205 74.2008 33.5765C56.3048 31.3525 39.9368 44.0965 37.7048 61.9925C37.4008 64.4085 37.3688 66.8565 37.6088 69.2725C37.6888 70.0485 38.2488 70.6965 39.0088 70.8725C40.1448 71.1365 41.3048 71.3445 42.4488 71.4885C43.8168 71.6565 45.1688 71.7445 46.5128 71.7445C62.7608 71.7445 76.8888 59.6085 78.9448 43.0805C79.2488 40.6485 79.2808 38.2005 79.0408 35.7925ZM75.3208 42.6165C73.3688 58.3045 59.1768 69.5365 43.5288 67.9205L60.2568 53.2645C61.0168 52.6005 61.0888 51.4405 60.4248 50.6805C59.7608 49.9205 58.6008 49.8405 57.8408 50.5125L41.1208 65.1685C41.1448 64.2565 41.2168 63.3445 41.3288 62.4405C43.3128 46.5445 57.8488 35.2245 73.7448 37.2005C74.3288 37.2725 74.9208 37.3685 75.5048 37.4725C75.5928 39.1845 75.5288 40.9125 75.3208 42.6165ZM31.5768 63.7205H9.08878C6.53678 63.7205 4.45678 61.6405 4.45678 59.0885V24.4645L29.9208 34.2165C29.8328 34.4245 29.7928 34.6565 29.7928 34.8965C29.7928 35.9045 30.6088 36.7285 31.6248 36.7285H40.4168C41.4248 36.7285 42.2488 35.9125 42.2488 34.8965C42.2488 34.6565 42.2008 34.4245 42.1208 34.2165L67.5848 24.4645V27.8645C67.5848 28.8725 68.4008 29.6965 69.4168 29.6965C70.4248 29.6965 71.2488 28.8805 71.2488 27.8645V18.4245C71.2488 13.8565 67.5288 10.1365 62.9608 10.1365H57.8168V7.03246C57.8168 3.30446 54.7848 0.272461 51.0568 0.272461H21.0008C17.2728 0.272461 14.2408 3.30446 14.2408 7.03246V10.1365H9.09678C4.52078 10.1365 0.800781 13.8565 0.800781 18.4245V59.0805C0.800781 63.6485 4.52078 67.3685 9.08878 67.3685H31.5768C32.5848 67.3685 33.4088 66.5525 33.4088 65.5365C33.4088 64.5365 32.5848 63.7205 31.5768 63.7205ZM17.8888 7.03246C17.8888 5.32046 19.2808 3.92846 20.9928 3.92846H51.0408C52.7528 3.92846 54.1448 5.32046 54.1448 7.03246V10.1365H17.8888V7.03246ZM4.45678 18.4245C4.45678 15.8725 6.53678 13.7925 9.08878 13.7925H62.9448C65.4968 13.7925 67.5768 15.8725 67.5768 18.4245V20.5445L39.8328 31.1685C37.8008 31.9445 33.8648 31.8005 31.4008 30.8565L4.45678 20.5365V18.4245Z" fill="#281911"/>
</svg>
