<svg width="70" height="69" viewBox="0 0 70 69" fill="none" xmlns="http://www.w3.org/2000/svg">
<path fill-rule="evenodd" clip-rule="evenodd" d="M34.9844 69C54.0382 69 69.4844 53.5538 69.4844 34.5C69.4844 15.4462 54.0382 0 34.9844 0C15.9306 0 0.484375 15.4462 0.484375 34.5C0.484375 53.5538 15.9306 69 34.9844 69ZM35.0529 59.907C50.9514 59.907 63.8397 46.766 63.8397 30.5558C63.8397 14.3455 50.9514 1.20452 35.0529 1.20452C19.1544 1.20452 6.26606 14.3455 6.26606 30.5558C6.26606 46.766 19.1544 59.907 35.0529 59.907Z" fill="white"/>
<path d="M35.7267 48C33.8308 48 32.1547 47.6639 30.6985 46.9916C29.2697 46.3193 28.1432 45.381 27.3189 44.1765C26.4946 42.972 26.055 41.6275 26 40.1429H29.0499C29.1873 41.5714 29.8055 42.8319 30.9046 43.9244C32.0036 44.9888 33.611 45.521 35.7267 45.521C37.6775 45.521 39.2162 45.0168 40.3427 44.0084C41.4967 42.972 42.0738 41.6695 42.0738 40.1008C42.0738 38.8403 41.7578 37.8319 41.1258 37.0756C40.4939 36.2913 39.7108 35.7171 38.7766 35.3529C37.8424 34.9608 36.551 34.5406 34.9024 34.0924C32.979 33.5602 31.4541 33.042 30.3275 32.5378C29.201 32.0336 28.2393 31.2493 27.4425 30.1849C26.6457 29.1204 26.2473 27.6779 26.2473 25.8571C26.2473 24.3445 26.632 23 27.4013 21.8235C28.1706 20.619 29.256 19.6807 30.6573 19.0084C32.0586 18.3361 33.6659 18 35.4794 18C38.1446 18 40.2878 18.6723 41.9089 20.0168C43.5575 21.3333 44.5054 23.042 44.7527 25.1429H41.6204C41.4281 23.9384 40.7824 22.8739 39.6833 21.9496C38.5842 20.9972 37.1005 20.521 35.2321 20.521C33.5011 20.521 32.0586 20.9972 30.9046 21.9496C29.7505 22.8739 29.1735 24.1485 29.1735 25.7731C29.1735 27.0056 29.4895 28 30.1215 28.7563C30.7534 29.5126 31.5365 30.0868 32.4707 30.479C33.4324 30.8711 34.7238 31.2913 36.3449 31.7395C38.2133 32.2717 39.7245 32.8039 40.8785 33.3361C42.0325 33.8403 43.008 34.6247 43.8048 35.6891C44.6016 36.7535 45 38.1821 45 39.9748C45 41.3473 44.6428 42.6499 43.9284 43.8824C43.214 45.1148 42.1562 46.1092 40.7549 46.8656C39.3536 47.6219 37.6775 48 35.7267 48Z" fill="black"/>
</svg>
