<svg width="85" height="71" viewBox="0 0 85 71" fill="none" xmlns="http://www.w3.org/2000/svg">
<path d="M6.06351 0.958321C4.10851 1.43603 2.32691 2.91332 1.39276 4.78162L0.849609 5.86793V35.5227V65.1775L1.58826 66.546C2.41361 68.0667 3.08766 68.7186 4.73836 69.5873L5.84676 70.1738H42.4537H79.0607L80.4292 69.4352C81.9498 68.6098 82.6018 67.9366 83.4705 66.2851L84.057 65.1767L84.1224 35.9562C84.1879 3.39017 84.2746 5.56277 82.6885 3.47773C82.1674 2.78242 81.4067 2.15257 80.4725 1.65278L79.0607 0.870773L42.8889 0.827423C22.987 0.827423 6.43326 0.870773 6.06351 0.958321ZM78.9077 4.67282C79.6242 4.99837 79.9285 5.30267 80.2549 6.02007C80.6459 6.86752 80.6893 7.47527 80.6893 12.5379V18.1428H42.4529H4.21731V12.5379C4.21731 7.47612 4.26066 6.86752 4.65166 6.02007C4.97721 5.30267 5.28151 4.99922 5.99891 4.67282C6.91096 4.25973 7.73716 4.23848 42.4537 4.23848C77.1694 4.23848 77.9948 4.26057 78.9077 4.67282ZM80.6893 42.8438C80.6893 63.4172 80.668 64.1125 80.2549 65.0245C79.9294 65.7419 79.6251 66.0454 78.9077 66.3718C77.9948 66.7849 77.1694 66.8061 42.4529 66.8061C7.73631 66.8061 6.91096 66.7849 5.99806 66.3718C5.28066 66.0462 4.97721 65.7419 4.65081 65.0245C4.23771 64.1125 4.21646 63.4172 4.21646 42.8438V21.6184H42.452H80.6876V42.8438H80.6893Z" fill="#281911"/>
<path d="M9.75737 8.01839C7.56352 8.97464 7.04162 11.8859 8.75777 13.602C11.1913 16.0568 15.188 13.863 14.5582 10.4298C14.1672 8.38814 11.7124 7.14969 9.75737 8.01839Z" fill="#281911"/>
<path d="M20.1851 8.01839C17.9913 8.97464 17.4694 11.8859 19.1855 13.602C21.6191 16.0568 25.6158 13.863 24.9859 10.4298C24.5958 8.38814 22.141 7.14969 20.1851 8.01839Z" fill="#281911"/>
<path d="M30.6128 8.01839C28.419 8.97464 27.8971 11.8859 29.6132 13.602C32.0468 16.0568 36.0435 13.863 35.4136 10.4298C35.0226 8.38814 32.5678 7.14969 30.6128 8.01839Z" fill="#281911"/>
<path d="M35.5 45.9502V59.8545H42.4521H49.4043V45.9502V32.0459H42.4521H35.5V45.9502ZM45.9278 45.9502V56.378H42.4521H38.9765V45.9502V35.5224H42.4521H45.9278V45.9502Z" fill="#281911"/>
<path d="M56.3563 49.4257V59.8535H63.3085H70.2598V49.4257V38.9979H63.3076H56.3555V49.4257H56.3563ZM66.7841 49.4257V56.3779H63.3085H59.8328V49.4257V42.4736H63.3085H66.7841V49.4257Z" fill="#281911"/>
<path d="M14.6445 52.9023V59.8545H21.5967H28.5488V52.9023V45.9502H21.5967H14.6445V52.9023ZM25.0723 52.9023V56.378H21.5967H18.121V52.9023V49.4267H21.5967H25.0723V52.9023Z" fill="#281911"/>
</svg>
